<?xml version="1.0" standalone="no"?>
<!DOCTYPE svg PUBLIC "-//W3C//DTD SVG 20010904//EN"
 "http://www.w3.org/TR/2001/REC-SVG-20010904/DTD/svg10.dtd">
<svg version="1.0" xmlns="http://www.w3.org/2000/svg"
 width="10144.000000pt" height="5851.000000pt" viewBox="0 0 10144.000000 5851.000000"
 preserveAspectRatio="xMidYMid meet">

<g transform="translate(0.000000,5851.000000) scale(0.100000,-0.100000)"
fill="#000000" stroke="none">
<path d="M32050 45624 c-567 -30 -951 -69 -1375 -140 -1374 -230 -2577 -699
-3737 -1460 -1415 -927 -2569 -2178 -3380 -3664 -728 -1334 -1032 -2700 -893
-4020 120 -1141 530 -2234 1240 -3305 179 -271 315 -443 634 -805 370 -418
743 -809 1540 -1615 1385 -1399 2110 -2171 2572 -2735 336 -411 695 -957 972
-1475 559 -1050 774 -2179 632 -3320 -127 -1019 -533 -1983 -1219 -2893 -409
-541 -861 -1006 -1501 -1542 -785 -657 -1756 -1191 -2715 -1493 -733 -231
-1450 -350 -2265 -376 -576 -19 -1008 23 -1445 139 -334 89 -557 171 -843 312
-450 221 -783 454 -1093 763 -284 283 -453 524 -639 909 -205 422 -358 884
-541 1626 -199 809 -355 1260 -545 1576 -103 172 -306 380 -492 505 -382 256
-897 323 -1357 177 -272 -87 -493 -231 -736 -480 -361 -370 -554 -763 -636
-1292 -29 -189 -35 -542 -14 -745 105 -986 677 -1922 1726 -2820 904 -775
1827 -1282 2965 -1628 652 -198 1318 -315 2140 -375 239 -17 1304 -17 1540 0
1844 136 3349 519 4945 1259 2087 968 3708 2294 4784 3913 995 1496 1506 3097
1506 4720 0 1102 -308 2201 -937 3348 -435 793 -1159 1740 -2248 2937 -469
516 -770 829 -1605 1670 -865 871 -1184 1208 -1579 1669 -414 483 -738 926
-931 1271 -439 783 -627 1747 -534 2735 79 845 364 1636 861 2388 477 723
1189 1436 1928 1929 849 566 1771 890 2785 978 809 70 1491 -16 2060 -257 666
-283 1197 -783 1533 -1445 248 -490 376 -995 418 -1658 38 -599 -43 -1967
-212 -3594 -16 -157 -29 -293 -29 -303 0 -17 24 -18 582 -16 l582 3 33 255
c301 2367 532 3939 698 4752 159 772 399 1657 685 2523 60 181 108 330 107
330 -1 1 -121 19 -267 39 -515 74 -1217 197 -1885 332 -1048 211 -1778 318
-2585 380 -191 14 -1058 27 -1230 18z"/>
</g>
</svg>
